<svg width="20" height="20" viewBox="0 0 20 20" fill="none" xmlns="http://www.w3.org/2000/svg">
<g clip-path="url(#clip0_2645_7705)">
<path d="M9.99976 1.66666C11.4589 1.66666 12.6581 2.16 13.4731 2.6325C14.5764 3.27166 14.9998 4.47416 14.9998 5.5475V6.9725C15.756 7.44704 16.486 7.96224 17.1864 8.51583C17.3526 8.6558 17.4576 8.85515 17.479 9.0714C17.5003 9.28764 17.4363 9.50368 17.3007 9.67344C17.1651 9.84321 16.9685 9.95328 16.7529 9.98019C16.5372 10.0071 16.3196 9.94872 16.1464 9.8175C15.7736 9.52388 15.3911 9.24262 14.9998 8.97416V14.655C14.9998 15.6306 14.6122 16.5661 13.9224 17.256C13.2326 17.9458 12.297 18.3333 11.3214 18.3333H8.67809C7.70254 18.3333 6.76694 17.9458 6.07712 17.256C5.3873 16.5661 4.99976 15.6306 4.99976 14.655V8.97416C4.61059 9.24416 4.22476 9.52166 3.85393 9.8175C3.68131 9.95563 3.4609 10.0195 3.24117 9.99516C3.02144 9.97078 2.82039 9.86011 2.68226 9.6875C2.54413 9.51489 2.48022 9.29447 2.5046 9.07474C2.52898 8.85501 2.63965 8.65396 2.81226 8.51583C3.51299 7.96247 4.24323 7.44755 4.99976 6.97333V5.5475C4.99976 4.47333 5.42309 3.27166 6.52643 2.6325C7.34143 2.16 8.54143 1.66666 9.99976 1.66666ZM13.3331 9.51166L13.2323 9.61333L13.1189 9.73333C12.7608 10.1424 12.5458 10.657 12.5064 11.1992L12.4998 11.3808V14.1667L12.4956 14.2917C12.4658 14.6885 12.295 15.0615 12.014 15.3434C11.7331 15.6252 11.3606 15.7972 10.9639 15.8283L10.8331 15.8333H9.16643L9.04143 15.8292C8.64462 15.7993 8.27157 15.6285 7.98973 15.3476C7.7079 15.0667 7.53587 14.6942 7.50476 14.2975L7.49976 14.1667V11.3808L7.49393 11.2158C7.45827 10.6734 7.24675 10.1573 6.89143 9.74583L6.76726 9.6125L6.66643 9.5125V14.6542L6.67309 14.8142C6.71102 15.2911 6.91768 15.7388 7.25596 16.0771C7.59425 16.4154 8.04202 16.6221 8.51893 16.66L8.67809 16.6667H11.3214L11.4806 16.66C11.9575 16.6221 12.4053 16.4154 12.7436 16.0771C13.0818 15.7388 13.2885 15.2911 13.3264 14.8142L13.3331 14.655V9.51166ZM9.99976 6.66666C9.53809 6.66666 8.92976 6.82666 8.22643 7.1225C7.98976 7.2225 7.74976 7.33416 7.51059 7.45416L7.15226 7.64L7.94643 8.43416C8.67378 9.16172 9.10626 10.1327 9.16059 11.16L9.16643 11.3808V14.1667H10.8331V11.3808C10.8329 10.3519 11.2135 9.35928 11.9014 8.59416L12.0531 8.43416L12.8473 7.64C12.4973 7.45066 12.1385 7.27797 11.7723 7.1225C11.0706 6.82666 10.4623 6.66666 9.99976 6.66666ZM9.99976 3.33333C8.91893 3.33333 8.00809 3.7 7.36226 4.075C6.93559 4.32083 6.66643 4.8525 6.66643 5.54666V6.01333C6.96726 5.85916 7.27393 5.71416 7.57976 5.585C8.36143 5.25666 9.21143 5 9.99976 5C10.7881 5 11.6381 5.25666 12.4198 5.58583C12.7256 5.715 13.0323 5.86 13.3331 6.01333V5.54666C13.3331 4.85333 13.0639 4.32166 12.6373 4.07416C11.9914 3.7 11.0806 3.33333 9.99976 3.33333Z" fill="var(--secondary-color)"/>
</g>
<defs>
<clipPath id="clip0_2645_7705">
<rect width="20" height="20" fill="white"/>
</clipPath>
</defs>
</svg>
