<svg width="500" height="500" viewBox="0 0 500 500" fill="none" xmlns="http://www.w3.org/2000/svg">
<path d="M238.401 445.047H45.3017C42.1547 445.047 39.5938 442.487 39.5938 439.339V60.66C39.5938 57.513 42.1547 54.952 45.3017 54.952H238.401C241.547 54.952 244.108 57.513 244.108 60.66V439.339C244.108 442.487 241.547 445.047 238.401 445.047ZM45.3017 55.203C42.2917 55.203 39.8438 57.651 39.8438 60.661V439.34C39.8438 442.35 42.2917 444.798 45.3017 444.798H238.401C241.41 444.798 243.858 442.35 243.858 439.34V60.66C243.858 57.651 241.41 55.202 238.401 55.202L45.3017 55.203Z" fill="#EBEBEB"/>
<path d="M454.697 445.047H261.598C258.452 445.047 255.891 442.487 255.891 439.339V60.66C255.891 57.513 258.452 54.952 261.598 54.952H454.697C457.845 54.952 460.405 57.513 460.405 60.66V439.339C460.405 442.487 457.844 445.047 454.697 445.047ZM261.598 55.203C258.589 55.203 256.141 57.651 256.141 60.661V439.34C256.141 442.35 258.589 444.798 261.598 444.798H454.697C457.707 444.798 460.155 442.35 460.155 439.34V60.66C460.155 57.651 457.707 55.202 454.697 55.202L261.598 55.203Z" fill="#EBEBEB"/>
<path d="M113.053 168.247L114.67 171.523L118.285 172.049L115.669 174.599L116.287 178.2L113.053 176.5L109.819 178.2L110.437 174.599L107.82 172.049L111.436 171.523L113.053 168.247Z" fill="#EBEBEB"/>
<path d="M436.702 322.483L438.319 325.759L441.934 326.285L439.318 328.835L439.936 332.436L436.702 330.736L433.468 332.436L434.085 328.835L431.469 326.285L435.085 325.759L436.702 322.483Z" fill="#F5F5F5"/>
<path d="M372.6 417.566L374.217 420.842L377.833 421.367L375.216 423.918L375.834 427.519L372.6 425.819L369.366 427.519L369.984 423.918L367.367 421.367L370.983 420.842L372.6 417.566Z" fill="#F5F5F5"/>
<path d="M225.948 110.154L226.548 111.37L227.89 111.565C228.225 111.614 228.359 112.025 228.116 112.262L227.145 113.209L227.374 114.546C227.431 114.88 227.081 115.134 226.782 114.977L225.581 114.346L224.38 114.977C224.08 115.135 223.73 114.88 223.788 114.546L224.017 113.209L223.046 112.262C222.804 112.026 222.937 111.614 223.272 111.565L224.614 111.37L225.214 110.154C225.365 109.85 225.798 109.85 225.948 110.154Z" fill="#EBEBEB"/>
<path d="M60.7757 402.008L61.3757 403.224L62.7177 403.419C63.0527 403.468 63.1867 403.879 62.9437 404.116L61.9727 405.063L62.2017 406.4C62.2587 406.734 61.9087 406.988 61.6097 406.831L60.4087 406.2L59.2077 406.831C58.9077 406.988 58.5577 406.734 58.6157 406.4L58.8447 405.063L57.8737 404.116C57.6317 403.88 57.7647 403.468 58.0997 403.419L59.4417 403.224L60.0417 402.008C60.1927 401.704 60.6257 401.704 60.7757 402.008Z" fill="#F5F5F5"/>
<path d="M87.7533 97.301L88.3533 98.517L89.6953 98.712C90.0303 98.761 90.1643 99.172 89.9213 99.409L88.9503 100.356L89.1793 101.693C89.2363 102.027 88.8863 102.281 88.5863 102.123L87.3853 101.492L86.1853 102.123C85.8853 102.281 85.5353 102.026 85.5923 101.693L85.8213 100.356L84.8503 99.409C84.6083 99.173 84.7413 98.761 85.0763 98.712L86.4183 98.517L87.0183 97.301C87.1703 96.997 87.6033 96.997 87.7533 97.301Z" fill="#EBEBEB"/>
<path d="M86.1306 338.319C86.1306 339.052 85.5366 339.646 84.8036 339.646C84.0706 339.646 83.4766 339.052 83.4766 338.319C83.4766 337.586 84.0706 336.992 84.8036 336.992C85.5356 336.992 86.1306 337.586 86.1306 338.319Z" fill="#EBEBEB"/>
<path d="M275.67 171.894C275.67 172.627 275.076 173.221 274.343 173.221C273.61 173.221 273.016 172.627 273.016 171.894C273.016 171.161 273.61 170.567 274.343 170.567C275.076 170.567 275.67 171.161 275.67 171.894Z" fill="#EBEBEB"/>
<path d="M206.709 98.4C206.709 99.133 206.115 99.727 205.382 99.727C204.649 99.727 204.055 99.133 204.055 98.4C204.055 97.667 204.649 97.073 205.382 97.073C206.115 97.073 206.709 97.668 206.709 98.4Z" fill="#F5F5F5"/>
<path d="M208.841 422.498C212.79 421.565 215.236 417.607 214.303 413.658C213.371 409.709 209.413 407.263 205.464 408.196C201.514 409.128 199.069 413.086 200.001 417.035C200.934 420.985 204.891 423.43 208.841 422.498Z" fill="#F0F0F0"/>
<path d="M204.597 411.09C203.037 411.09 201.587 411.59 200.407 412.45C200.017 413.35 199.797 414.34 199.797 415.38C199.797 419.44 203.087 422.72 207.147 422.72C208.517 422.72 209.807 422.34 210.907 421.681C210.897 421.671 210.897 421.671 210.907 421.671C211.457 420.651 211.767 419.491 211.767 418.251C211.767 414.3 208.557 411.09 204.597 411.09Z" fill="#E6E6E6"/>
<g opacity="0.3">
<path d="M200.949 145.618C200.949 146.648 200.114 147.483 199.084 147.483C198.054 147.483 197.219 146.648 197.219 145.618C197.219 144.588 198.054 143.753 199.084 143.753C200.114 143.753 200.949 144.588 200.949 145.618Z" fill="#0F74C7"/>
<path d="M72.9636 217.452C73.6943 217.452 74.2866 216.86 74.2866 216.129C74.2866 215.398 73.6943 214.806 72.9636 214.806C72.233 214.806 71.6406 215.398 71.6406 216.129C71.6406 216.86 72.233 217.452 72.9636 217.452Z" fill="#0F74C7"/>
<path d="M291.049 410.226C292.095 410.226 292.942 409.378 292.942 408.333C292.942 407.288 292.095 406.44 291.049 406.44C290.004 406.44 289.156 407.288 289.156 408.333C289.156 409.378 290.004 410.226 291.049 410.226Z" fill="#0F74C7"/>
<path d="M336.495 333.323C337.226 333.323 337.818 332.731 337.818 332C337.818 331.269 337.226 330.677 336.495 330.677C335.764 330.677 335.172 331.269 335.172 332C335.172 332.731 335.764 333.323 336.495 333.323Z" fill="#0F74C7"/>
<path d="M424.169 95.619C424.169 96.35 423.577 96.942 422.846 96.942C422.115 96.942 421.523 96.35 421.523 95.619C421.523 94.888 422.115 94.296 422.846 94.296C423.577 94.296 424.169 94.888 424.169 95.619Z" fill="#0F74C7"/>
<path d="M172.755 68.963C172.755 69.694 172.163 70.286 171.432 70.286C170.701 70.286 170.109 69.694 170.109 68.963C170.109 68.232 170.701 67.64 171.432 67.64C172.163 67.64 172.755 68.232 172.755 68.963Z" fill="#0F74C7"/>
<path d="M277.69 138.266C278.421 138.266 279.013 137.674 279.013 136.943C279.013 136.212 278.421 135.62 277.69 135.62C276.96 135.62 276.367 136.212 276.367 136.943C276.367 137.674 276.96 138.266 277.69 138.266Z" fill="#0F74C7"/>
</g>
<path d="M141.23 138.271C153.331 138.271 163.14 128.462 163.14 116.361C163.14 104.26 153.331 94.451 141.23 94.451C129.13 94.451 119.32 104.26 119.32 116.361C119.32 128.462 129.13 138.271 141.23 138.271Z" fill="#0F74C7"/>
<path opacity="0.7" d="M141.23 138.271C153.331 138.271 163.14 128.462 163.14 116.361C163.14 104.26 153.331 94.451 141.23 94.451C129.13 94.451 119.32 104.26 119.32 116.361C119.32 128.462 129.13 138.271 141.23 138.271Z" fill="white"/>
<path opacity="0.2" d="M133.677 99.83C130.606 99.83 127.691 100.465 125.036 101.6C121.486 105.493 119.32 110.678 119.32 116.362C119.32 128.459 129.127 138.266 141.224 138.266C144.305 138.266 147.241 137.631 149.907 136.486C149.907 136.486 149.907 136.486 149.907 136.476C153.436 132.582 155.591 127.418 155.591 121.745C155.592 109.637 145.785 99.83 133.677 99.83Z" fill="#0F74C7"/>
<path opacity="0.2" d="M131.498 105.623C131.498 106.729 130.601 107.626 129.495 107.626C128.389 107.626 127.492 106.729 127.492 105.623C127.492 104.517 128.389 103.62 129.495 103.62C130.601 103.62 131.498 104.517 131.498 105.623Z" fill="#0F74C7"/>
<path opacity="0.2" d="M155.061 103.62C155.061 104.726 154.164 105.623 153.058 105.623C151.952 105.623 151.055 104.726 151.055 103.62C151.055 102.514 151.952 101.617 153.058 101.617C154.164 101.618 155.061 102.514 155.061 103.62Z" fill="#0F74C7"/>
<path opacity="0.2" d="M151.056 117.901C151.056 119.711 149.589 121.179 147.778 121.179C145.968 121.179 144.5 119.711 144.5 117.901C144.5 116.091 145.967 114.623 147.778 114.623C149.588 114.623 151.056 116.091 151.056 117.901Z" fill="#0F74C7"/>
<path opacity="0.2" d="M140.637 127.246C140.637 129.666 138.675 131.627 136.256 131.627C133.836 131.627 131.875 129.665 131.875 127.246C131.875 124.826 133.837 122.865 136.256 122.865C138.675 122.865 140.637 124.827 140.637 127.246Z" fill="#0F74C7"/>
<path d="M400.902 380.704C403.342 370.37 396.943 360.015 386.609 357.575C376.276 355.135 365.921 361.534 363.481 371.867C361.041 382.201 367.44 392.556 377.773 394.996C388.107 397.436 398.462 391.037 400.902 380.704Z" fill="#0F74C7"/>
<path opacity="0.3" d="M400.902 380.704C403.342 370.37 396.943 360.015 386.609 357.575C376.276 355.135 365.921 361.534 363.481 371.867C361.041 382.201 367.44 392.556 377.773 394.996C388.107 397.436 398.462 391.037 400.902 380.704Z" fill="white"/>
<path opacity="0.4" d="M394.329 361.339C392.58 360.808 390.718 360.527 388.792 360.527C378.173 360.527 369.562 369.137 369.562 379.755C369.562 385.773 372.321 391.134 376.652 394.663C378.401 395.194 380.264 395.475 382.191 395.475C392.81 395.475 401.419 386.865 401.419 376.247C401.419 370.23 398.66 364.858 394.329 361.339Z" fill="#0F74C7"/>
<path d="M363.827 381.948C343.293 391.61 358.611 399.057 387.539 388.661C414.323 379.035 424.506 366.892 400.591 370.655C401.825 375.763 368.279 388.834 363.827 381.948Z" fill="#0F74C7"/>
<path opacity="0.2" d="M394.094 187.83C367.204 206 332.394 229.96 322.784 287.64H320.734C330.084 230.66 363.624 206.07 390.524 187.83H394.094Z" fill="black"/>
<path d="M255.018 368.267C238.048 368.268 221.209 360.605 213.032 348.081C207.979 340.342 202.112 324.131 219.587 302.503L221.143 303.761C208.781 319.06 206.495 334.411 214.707 346.988C224.701 362.297 248.303 369.994 268.437 364.516C289.065 358.903 301.589 340.959 302.798 315.288C306.933 227.481 353.582 200.433 387.644 180.683C408.806 168.413 424.096 159.547 420.735 140.845C420.269 138.25 419.234 136.457 417.572 135.364C413.219 132.496 404.719 134.478 394.878 136.772C375.572 141.269 349.132 147.429 333.381 120.638L335.105 119.624C350.111 145.147 374.682 139.424 394.424 134.823C404.714 132.427 413.601 130.356 418.672 133.692C420.817 135.104 422.136 137.328 422.704 140.491C426.313 160.573 409.691 170.211 388.647 182.413C354.983 201.932 308.879 228.664 304.795 315.381C303.543 341.977 290.482 360.589 268.961 366.445C264.426 367.679 259.715 368.266 255.018 368.267Z" fill="#0F74C7"/>
<path opacity="0.2" d="M255.018 368.267C238.048 368.268 221.209 360.605 213.032 348.081C207.979 340.342 202.112 324.131 219.587 302.503L221.143 303.761C208.781 319.06 206.495 334.411 214.707 346.988C224.701 362.297 248.303 369.994 268.437 364.516C289.065 358.903 301.589 340.959 302.798 315.288C306.933 227.481 353.582 200.433 387.644 180.683C408.806 168.413 424.096 159.547 420.735 140.845C420.269 138.25 419.234 136.457 417.572 135.364C413.219 132.496 404.719 134.478 394.878 136.772C375.572 141.269 349.132 147.429 333.381 120.638L335.105 119.624C350.111 145.147 374.682 139.424 394.424 134.823C404.714 132.427 413.601 130.356 418.672 133.692C420.817 135.104 422.136 137.328 422.704 140.491C426.313 160.573 409.691 170.211 388.647 182.413C354.983 201.932 308.879 228.664 304.795 315.381C303.543 341.977 290.482 360.589 268.961 366.445C264.426 367.679 259.715 368.266 255.018 368.267Z" fill="white"/>
<path d="M312.758 96.949C319.613 96.824 326.34 99.083 326.34 99.083C326.34 99.083 337.305 117.854 338.642 122.15C338.181 126.39 331.027 133.341 331.027 133.341L312.758 96.949Z" fill="#0F74C7"/>
<path opacity="0.3" d="M312.758 96.949C319.613 96.824 326.34 99.083 326.34 99.083C326.34 99.083 337.305 117.854 338.642 122.15C338.181 126.39 331.027 133.341 331.027 133.341L312.758 96.949Z" fill="white"/>
<path d="M345.34 188.133C341.204 182.885 337.143 177.539 333.781 171.748C332.941 170.301 332.145 168.827 331.392 167.333C330.964 166.484 330.55 165.628 330.148 164.766C329.797 164.013 329.022 162.904 328.944 162.082C327.743 149.41 332.081 140.082 327.916 129.91L311.445 136.347C311.445 136.347 312.846 154.469 316.043 165.31C318.027 172.036 322.518 177.859 326.846 183.247C328.2 184.933 329.505 186.657 330.856 188.345C332.135 189.943 333.568 191.409 334.85 192.999C336.797 195.412 337.445 197.715 335.965 200.56C335.886 200.712 335.803 200.863 335.718 201.013C335.298 201.754 337.264 202.594 338.499 201.034C340.541 198.453 340.22 198.612 341.961 196.411C343.018 195.075 344.232 193.632 345.28 192.378C346.304 191.155 346.327 189.385 345.34 188.133Z" fill="#0F74C7"/>
<path opacity="0.7" d="M345.34 188.133C341.204 182.885 337.143 177.539 333.781 171.748C332.941 170.301 332.145 168.827 331.392 167.333C330.964 166.484 330.55 165.628 330.148 164.766C329.797 164.013 329.022 162.904 328.944 162.082C327.743 149.41 332.081 140.082 327.916 129.91L311.445 136.347C311.445 136.347 312.846 154.469 316.043 165.31C318.027 172.036 322.518 177.859 326.846 183.247C328.2 184.933 329.505 186.657 330.856 188.345C332.135 189.943 333.568 191.409 334.85 192.999C336.797 195.412 337.445 197.715 335.965 200.56C335.886 200.712 335.803 200.863 335.718 201.013C335.298 201.754 337.264 202.594 338.499 201.034C340.541 198.453 340.22 198.612 341.961 196.411C343.018 195.075 344.232 193.632 345.28 192.378C346.304 191.155 346.327 189.385 345.34 188.133Z" fill="white"/>
<path opacity="0.3" d="M341.312 182.918C339.107 185.583 334.624 189.04 332.648 190.441C333.078 190.92 333.504 191.409 333.931 191.898C337.999 189.241 341.215 185.794 342.435 184.394C342.058 183.909 341.685 183.413 341.312 182.918Z" fill="#0F74C7"/>
<path opacity="0.3" d="M345.334 188.135C345.296 188.083 345.256 188.041 345.218 187.99C344.524 188.713 344.035 189.866 343.953 191.16C343.887 192.054 344.037 192.872 344.33 193.511C344.663 193.125 344.974 192.743 345.279 192.38C346.307 191.156 346.321 189.387 345.334 188.135Z" fill="#0F74C7"/>
<path d="M308.846 108.951C307.123 111.457 305.092 113.927 302.471 116.145C301.17 117.26 299.685 118.269 298.054 119.125C297.231 119.545 296.366 119.909 295.471 120.21L294.796 120.427L294.578 120.495C294.42 120.543 294.261 120.586 294.101 120.624C293.799 120.692 293.496 120.738 293.228 120.76C292.145 120.842 291.36 120.688 290.713 120.527C289.436 120.179 288.583 119.714 287.776 119.263C286.981 118.804 286.283 118.334 285.622 117.849C284.32 116.858 283.142 115.863 282.044 114.801C279.834 112.691 277.874 110.503 276.054 108.066C275.224 106.955 275.452 105.382 276.563 104.553C277.42 103.912 278.553 103.902 279.406 104.441L279.482 104.49C281.842 105.988 284.223 107.568 286.546 108.982C287.719 109.674 288.865 110.37 289.992 110.912C290.546 111.192 291.089 111.447 291.579 111.628C292.056 111.814 292.532 111.92 292.656 111.895C292.708 111.892 292.646 111.821 292.278 111.834C292.189 111.839 292.063 111.851 291.935 111.879C291.861 111.893 291.789 111.912 291.717 111.935C291.648 111.958 291.746 111.916 291.752 111.91L292.083 111.741C292.523 111.517 292.945 111.237 293.373 110.952C294.229 110.373 295.044 109.638 295.876 108.832C297.522 107.197 299.106 105.162 300.778 103.046L300.8 103.017C302.512 100.849 305.658 100.48 307.826 102.192C309.902 103.831 310.319 106.8 308.846 108.951Z" fill="#0F74C7"/>
<path opacity="0.7" d="M308.846 108.951C307.123 111.457 305.092 113.927 302.471 116.145C301.17 117.26 299.685 118.269 298.054 119.125C297.231 119.545 296.366 119.909 295.471 120.21L294.796 120.427L294.578 120.495C294.42 120.543 294.261 120.586 294.101 120.624C293.799 120.692 293.496 120.738 293.228 120.76C292.145 120.842 291.36 120.688 290.713 120.527C289.436 120.179 288.583 119.714 287.776 119.263C286.981 118.804 286.283 118.334 285.622 117.849C284.32 116.858 283.142 115.863 282.044 114.801C279.834 112.691 277.874 110.503 276.054 108.066C275.224 106.955 275.452 105.382 276.563 104.553C277.42 103.912 278.553 103.902 279.406 104.441L279.482 104.49C281.842 105.988 284.223 107.568 286.546 108.982C287.719 109.674 288.865 110.37 289.992 110.912C290.546 111.192 291.089 111.447 291.579 111.628C292.056 111.814 292.532 111.92 292.656 111.895C292.708 111.892 292.646 111.821 292.278 111.834C292.189 111.839 292.063 111.851 291.935 111.879C291.861 111.893 291.789 111.912 291.717 111.935C291.648 111.958 291.746 111.916 291.752 111.91L292.083 111.741C292.523 111.517 292.945 111.237 293.373 110.952C294.229 110.373 295.044 109.638 295.876 108.832C297.522 107.197 299.106 105.162 300.778 103.046L300.8 103.017C302.512 100.849 305.658 100.48 307.826 102.192C309.902 103.831 310.319 106.8 308.846 108.951Z" fill="white"/>
<path d="M272.288 102.416L273.46 104.382C273.46 104.382 274.355 106.998 276.146 107.482L281 105.91L280.757 105.502C280.759 105.503 280.762 105.503 280.764 105.503C280.142 104.556 280.209 102.73 280.428 101.211C280.646 99.692 279.858 99.638 279.276 100.016C278.94 100.234 278.702 100.927 278.429 101.674C278.19 101.345 277.934 101.028 277.645 100.74L276.162 99.263C275.522 98.626 274.497 98.597 273.822 99.197L272.62 100.265C272.008 100.809 271.869 101.712 272.288 102.416Z" fill="#0F74C7"/>
<path opacity="0.7" d="M272.288 102.416L273.46 104.382C273.46 104.382 274.355 106.998 276.146 107.482L281 105.91L280.757 105.502C280.759 105.503 280.762 105.503 280.764 105.503C280.142 104.556 280.209 102.73 280.428 101.211C280.646 99.692 279.858 99.638 279.276 100.016C278.94 100.234 278.702 100.927 278.429 101.674C278.19 101.345 277.934 101.028 277.645 100.74L276.162 99.263C275.522 98.626 274.497 98.597 273.822 99.197L272.62 100.265C272.008 100.809 271.869 101.712 272.288 102.416Z" fill="white"/>
<path d="M317.674 95.224C313.025 96.352 306.638 99.005 302.325 101.692C300.796 102.644 300.033 104.452 300.393 106.217C302.317 115.657 306.707 128.302 311.446 136.346L333.557 127.199C333.709 123.299 328.341 110.679 322.873 98.482C321.891 96.288 320.01 94.658 317.674 95.224Z" fill="#0F74C7"/>
<path opacity="0.8" d="M317.674 95.224C313.025 96.352 306.638 99.005 302.325 101.692C300.796 102.644 300.033 104.452 300.393 106.217C302.317 115.657 306.707 128.302 311.446 136.346L333.557 127.199C333.709 123.299 328.341 110.679 322.873 98.482C321.891 96.288 320.01 94.658 317.674 95.224Z" fill="white"/>
<path opacity="0.3" d="M326.302 106.214L321.914 104.743C322.896 107.31 326.447 110.564 328.944 112.475C328.121 110.469 327.229 108.372 326.302 106.214Z" fill="#0F74C7"/>
<path d="M316.22 85.32C314.395 81.839 310.446 80.087 305.704 80.483C301.706 80.817 298.16 84.899 298.581 87.105C299.001 89.311 302.366 90.245 302.975 91.011L300.202 93.021C298.822 94.022 298.552 95.968 299.606 97.308C300.773 98.79 302.309 100.338 303.204 101.431C310.868 101.232 316.536 98.308 318.578 95.495C317.844 91.916 318.035 88.782 316.22 85.32Z" fill="#0F74C7"/>
<path opacity="0.8" d="M316.22 85.32C314.395 81.839 310.446 80.087 305.704 80.483C301.706 80.817 298.16 84.899 298.581 87.105C299.001 89.311 302.366 90.245 302.975 91.011L300.202 93.021C298.822 94.022 298.552 95.968 299.606 97.308C300.773 98.79 302.309 100.338 303.204 101.431C310.868 101.232 316.536 98.308 318.578 95.495C317.844 91.916 318.035 88.782 316.22 85.32Z" fill="white"/>
<path d="M312.464 87.476C313.986 91.372 312.063 95.764 308.167 97.286C304.271 98.808 299.879 96.885 298.357 92.989C296.835 89.094 298.758 84.701 302.654 83.179C306.549 81.657 310.941 83.581 312.464 87.476Z" fill="#263238"/>
<path d="M377.389 177.596C377.278 174.307 377.136 174.636 377.04 171.832C376.982 170.129 376.975 168.243 376.964 166.609C376.953 165.014 375.826 163.649 374.263 163.332C372.938 163.063 371.609 162.807 370.286 162.525C368.56 162.157 366.854 161.761 365.159 161.269C363.845 160.887 362.542 160.466 361.254 160.002C359.874 159.505 358.513 158.96 357.165 158.382C355.589 157.706 354.032 156.986 352.487 156.244C350.762 155.416 349.05 154.56 347.344 153.693C340.763 142.798 340.621 135.619 333.558 127.198L318.398 134.056C318.398 134.056 329.537 153.821 337.123 162.201C341.49 167.024 348.341 169.198 354.451 170.776C358.859 171.914 363.329 172.785 367.804 173.607C369.544 173.926 371.435 174.05 372.932 175.089C374.111 175.907 374.721 177.184 375.069 178.541C375.14 178.818 375.2 179.098 375.254 179.38C375.414 180.217 377.457 179.585 377.389 177.596Z" fill="#0F74C7"/>
<path opacity="0.8" d="M377.389 177.596C377.278 174.307 377.136 174.636 377.04 171.832C376.982 170.129 376.975 168.243 376.964 166.609C376.953 165.014 375.826 163.649 374.263 163.332C372.938 163.063 371.609 162.807 370.286 162.525C368.56 162.157 366.854 161.761 365.159 161.269C363.845 160.887 362.542 160.466 361.254 160.002C359.874 159.505 358.513 158.96 357.165 158.382C355.589 157.706 354.032 156.986 352.487 156.244C350.762 155.416 349.05 154.56 347.344 153.693C340.763 142.798 340.621 135.619 333.558 127.198L318.398 134.056C318.398 134.056 329.537 153.821 337.123 162.201C341.49 167.024 348.341 169.198 354.451 170.776C358.859 171.914 363.329 172.785 367.804 173.607C369.544 173.926 371.435 174.05 372.932 175.089C374.111 175.907 374.721 177.184 375.069 178.541C375.14 178.818 375.2 179.098 375.254 179.38C375.414 180.217 377.457 179.585 377.389 177.596Z" fill="white"/>
<path opacity="0.3" d="M369.7 162.4C369.103 162.269 368.497 162.135 367.894 161.992C367.941 165.445 366.322 171.409 365.727 173.216C366.358 173.335 366.998 173.457 367.629 173.577C369.384 168.832 369.66 163.809 369.7 162.4Z" fill="#0F74C7"/>
<path opacity="0.3" d="M376.961 166.61C376.95 165.011 375.827 163.649 374.267 163.329C373.953 163.265 373.629 163.197 373.312 163.143C373.378 164.083 373.963 165.174 374.941 166.04C375.582 166.618 376.307 167.002 376.973 167.183C376.963 166.984 376.962 166.797 376.961 166.61Z" fill="#0F74C7"/>
<path d="M311.045 87.54C311.45 89.056 309.753 90.65 308.395 89.339C307.293 88.275 305.633 86.493 304.278 85.646C302.886 84.775 304.742 83.259 306.928 83.847C308.969 84.397 310.64 86.023 311.045 87.54Z" fill="white"/>
<path d="M311.164 135.86C310.459 136.12 311.747 137.316 311.747 137.316C311.747 137.316 325.717 132.529 334.242 127.6C334.314 126.569 333.564 126.022 333.564 126.022C333.564 126.022 323.192 131.426 311.164 135.86Z" fill="#0F74C7"/>
<path opacity="0.5" d="M311.164 135.86C310.459 136.12 311.747 137.316 311.747 137.316C311.747 137.316 325.717 132.529 334.242 127.6C334.314 126.569 333.564 126.022 333.564 126.022C333.564 126.022 323.192 131.426 311.164 135.86Z" fill="white"/>
<path d="M321.46 94.563C324.218 95.956 326.814 97.431 329.407 99.064C330.698 99.877 331.983 100.712 333.249 101.613C334.525 102.496 335.784 103.427 337.047 104.475L337.521 104.863L338.112 105.396C338.532 105.766 338.84 106.107 339.149 106.447C339.473 106.798 339.74 107.136 340.003 107.473C340.276 107.812 340.535 108.149 340.768 108.481C341.757 109.809 342.563 111.16 343.354 112.5C344.891 115.217 346.222 117.93 347.32 120.849C347.81 122.151 347.152 123.603 345.849 124.094C344.871 124.462 343.807 124.182 343.131 123.468L343.082 123.414C341.073 121.286 339.146 119.041 337.207 116.956C335.31 114.877 333.295 112.743 331.67 111.815C329.4 110.399 326.872 108.993 324.36 107.608L316.797 103.41L316.778 103.4C314.363 102.06 313.492 99.016 314.832 96.601C316.141 94.246 319.077 93.363 321.46 94.563Z" fill="#0F74C7"/>
<path opacity="0.8" d="M321.46 94.563C324.218 95.956 326.814 97.431 329.407 99.064C330.698 99.877 331.983 100.712 333.249 101.613C334.525 102.496 335.784 103.427 337.047 104.475L337.521 104.863L338.112 105.396C338.532 105.766 338.84 106.107 339.149 106.447C339.473 106.798 339.74 107.136 340.003 107.473C340.276 107.812 340.535 108.149 340.768 108.481C341.757 109.809 342.563 111.16 343.354 112.5C344.891 115.217 346.222 117.93 347.32 120.849C347.81 122.151 347.152 123.603 345.849 124.094C344.871 124.462 343.807 124.182 343.131 123.468L343.082 123.414C341.073 121.286 339.146 119.041 337.207 116.956C335.31 114.877 333.295 112.743 331.67 111.815C329.4 110.399 326.872 108.993 324.36 107.608L316.797 103.41L316.778 103.4C314.363 102.06 313.492 99.016 314.832 96.601C316.141 94.246 319.077 93.363 321.46 94.563Z" fill="white"/>
<path d="M349.732 125.738L348.883 123.613C348.883 123.613 348.409 120.889 346.716 120.13L341.676 120.922L341.852 121.363C341.85 121.362 341.848 121.361 341.845 121.361C342.311 122.393 341.958 124.187 341.504 125.652C341.05 127.118 341.82 127.295 342.454 127.013C342.82 126.85 343.164 126.203 343.55 125.508C343.735 125.871 343.938 126.224 344.178 126.553L345.411 128.244C345.943 128.973 346.951 129.163 347.712 128.676L349.066 127.809C349.757 127.368 350.037 126.499 349.732 125.738Z" fill="#0F74C7"/>
<path opacity="0.8" d="M349.732 125.738L348.883 123.613C348.883 123.613 348.409 120.889 346.716 120.13L341.676 120.922L341.852 121.363C341.85 121.362 341.848 121.361 341.845 121.361C342.311 122.393 341.958 124.187 341.504 125.652C341.05 127.118 341.82 127.295 342.454 127.013C342.82 126.85 343.164 126.203 343.55 125.508C343.735 125.871 343.938 126.224 344.178 126.553L345.411 128.244C345.943 128.973 346.951 129.163 347.712 128.676L349.066 127.809C349.757 127.368 350.037 126.499 349.732 125.738Z" fill="white"/>
<path opacity="0.3" d="M317.235 106.057L316.016 106.156L308.531 124.24C308.971 124.27 309.375 124.233 309.749 124.141C309.749 124.141 319.509 120.504 322.463 119.171C320.475 115.051 317.235 106.057 317.235 106.057Z" fill="#0F74C7"/>
<path d="M303.57 110.802C303.987 114.059 306.429 120.981 308.535 124.24C312.19 122.98 318.295 120.603 321.249 119.27C319.26 115.151 317.166 109.475 316.02 106.157C312.871 106.366 306.008 108.951 303.57 110.802Z" fill="white"/>
<path opacity="0.3" d="M311.003 114.713C310.595 116.078 309.157 116.853 307.793 116.444C306.429 116.035 305.653 114.598 306.062 113.234C306.471 111.869 307.908 111.094 309.272 111.503C310.636 111.911 311.411 113.348 311.003 114.713Z" fill="#0F74C7"/>
<path opacity="0.6" d="M312.913 111.268C312.779 111.715 312.308 111.969 311.861 111.835C311.414 111.701 311.16 111.23 311.293 110.783C311.427 110.336 311.898 110.082 312.345 110.216C312.793 110.349 313.047 110.82 312.913 111.268Z" fill="#0F74C7"/>
<path opacity="0.6" d="M315.147 110.399C315.013 110.846 314.542 111.1 314.095 110.966C313.648 110.832 313.394 110.361 313.528 109.914C313.662 109.467 314.133 109.213 314.58 109.347C315.027 109.481 315.281 109.952 315.147 110.399Z" fill="#0F74C7"/>
<path opacity="0.5" d="M318.29 118.187L309.043 121.841L308.484 120.023L317.731 116.368L318.29 118.187Z" fill="#0F74C7"/>
<path opacity="0.2" d="M267.255 257.17C267.055 264.71 266.495 270.5 265.575 274.52C264.395 279.66 262.565 283.42 260.075 285.8C257.595 288.18 254.655 289.37 251.265 289.37C246.125 289.37 242.195 286.57 239.495 280.96C239.055 280.05 238.655 279.01 238.285 277.85C232.575 282.76 227.255 288.12 222.365 293.88L217.055 300.14C219.925 303.05 223.185 305.44 226.825 307.33C233.055 310.55 241.225 312.17 251.345 312.17C253.125 312.17 254.845 312.12 256.515 312.02C262.635 302.96 267.705 293.22 271.615 283L286.465 244.28L267.255 257.17Z" fill="black"/>
<path d="M133.391 309.958C138.988 315.555 150.893 327.46 150.893 327.46L199.904 281.293C183.038 274.881 150.162 293.188 133.391 309.958Z" fill="#263238"/>
<path d="M194.424 370.992C188.827 365.395 176.922 353.49 176.922 353.49L223.089 304.48C229.501 321.345 211.195 354.221 194.424 370.992Z" fill="#263238"/>
<path d="M261.401 260.699L280.492 223.89L243.683 242.981C231.857 249.115 220.939 256.858 211.239 265.989L148.492 325.059L179.322 355.889L238.392 293.142C247.524 283.443 255.267 272.525 261.401 260.699Z" fill="#0F74C7"/>
<path opacity="0.6" d="M261.401 260.699L280.492 223.89L243.683 242.981C231.857 249.115 220.939 256.858 211.239 265.989L148.492 325.059L179.322 355.889L238.392 293.142C247.524 283.443 255.267 272.525 261.401 260.699Z" fill="white"/>
<path d="M222.196 295.082C229.32 295.082 235.095 289.307 235.095 282.183C235.095 275.059 229.32 269.284 222.196 269.284C215.072 269.284 209.297 275.059 209.297 282.183C209.297 289.307 215.072 295.082 222.196 295.082Z" fill="white"/>
<path d="M222.199 290.468C226.775 290.468 230.484 286.759 230.484 282.183C230.484 277.607 226.775 273.898 222.199 273.898C217.623 273.898 213.914 277.607 213.914 282.183C213.914 286.759 217.623 290.468 222.199 290.468Z" fill="#0F74C7"/>
<path opacity="0.3" d="M189.745 344.816L159.562 314.635L184.273 291.371L213.008 320.105L189.745 344.816Z" fill="#0F74C7"/>
<path d="M140.22 337.616C117.615 339.455 110.127 353.922 107.573 373.155C106.271 382.964 105.693 392.888 97.4565 398.63C95.1705 400.224 96.3055 403.777 99.0915 403.69C129.43 402.743 143.581 387.886 145.358 381.665C144.746 385.598 143.854 388.7 142.866 391.14C141.85 393.647 144.603 395.967 146.895 394.531C155.412 389.195 166.094 379.376 166.804 363.453C160.507 354.603 140.22 337.616 140.22 337.616Z" fill="#0F74C7"/>
<path opacity="0.2" d="M140.22 337.616C117.615 339.455 110.127 353.922 107.573 373.155C106.271 382.964 105.693 392.888 97.4565 398.63C95.1705 400.224 96.3055 403.777 99.0915 403.69C129.43 402.743 143.581 387.886 145.358 381.665C144.746 385.598 143.854 388.7 142.866 391.14C141.85 393.647 144.603 395.967 146.895 394.531C155.412 389.195 166.094 379.376 166.804 363.453C160.507 354.603 140.22 337.616 140.22 337.616Z" fill="white"/>
<path d="M170.274 370.3L134.078 334.104L153.361 329.933L174.446 351.017L170.274 370.3Z" fill="#0F74C7"/>
</svg>
